<svg width="58" height="42" viewBox="0 0 58 42" fill="none" xmlns="http://www.w3.org/2000/svg">
<path d="M6.26522 18.8859L8.39953 17.8289L11.7731 12.755L12.8058 12.3322L13.9074 17.4765L12.4616 17.6879L11.36 15.5738L10.5338 18.8859H14.1828L17.9695 19.8725L19.4841 18.8859L22.0315 21.5638L23.1331 16.6309L24.9232 18.4631L26.0248 16.9128L27.8148 16.4195L30.4311 13.953L30.8442 12.755L32.9785 13.1074L33.8735 14.3054L32.29 17.6879L36.2143 15.6443V14.6577L37.729 14.3054L39.3814 15.9966L41.0337 13.953V12.5436L43.7188 10.6409L44.8204 9.02013H46.5416L49.571 2.74832L52.1872 0L53.1511 1.55034L51.6364 3.52349L52.1872 4.79195L53.633 5.07383L54.8035 10.2886V14.6577L56.8689 17.547L57.9016 21.5638L54.3215 19.2383L52.738 12.5436L51.7741 12.755L51.6364 17.2651L49.0202 21.5638L48.2628 28.1175L50.0529 28.5403L50.8102 27.6242L52.5315 29.5973L53.8396 35.5168L53.7019 39.3221H52.0495L51.4299 33.9664L50.2595 35.5872L47.7121 35.0235L45.6466 33.2617L43.3058 34.1074L43.4435 37.9128L41.5845 38.406L38.8306 40.5201L35.5259 40.0973L34.2177 39.3221L32.1523 39.6745L32.8408 40.5201L31.1884 41.5067L29.8803 40.8725L27.4017 42L23.6151 40.0973L22.1692 36.7148L20.93 36.8557L19.4841 35.6577L19.4153 34.7416L14.8024 34.2483L14.0451 36.7852L11.1535 35.4463L9.70765 32.9799H6.60946L6.26522 36.9262L4.47516 37.4899L3.58013 41.0839L2.89164 40.4497L0 32.9094L3.44243 31.2181L2.89164 27.906L2.34085 24.5235L3.85552 22.3389L3.37358 21L5.43904 18.745L6.26522 18.8859ZM52.0495 27.2013L55.2166 31.9933L56.2493 31.5705L54.9412 29.5973L52.0495 26.4966V27.2013ZM19.6907 17.4765V16.0671L22.1004 14.3054L24.1658 13.2483H21.7561L19.6218 14.5168L18.3137 15.7148V17.4765H19.6907Z" fill="white"/>
</svg>
